Coordinates
version=1
nRows=32
nColumns=12
inDegrees=yes

Units are S.I. units (second, meters, Newtons, ...)
Angles are in degrees

endheader
time	SC_y	SC_z	SC_x	AC_y	AC_z	AC_x	GH_y	GH_z	GH_yy	EL_x	PS_y
       0.0              -52.85          25.01          34.46          44.84          7.614          17.56         -144.4           5.04          -46.1          132.0          71.56
   0.04758              -52.84          25.02          34.47          44.84           7.61          17.56         -144.4          5.048         -46.11          132.0          71.55
   0.09516              -52.84          25.02          34.47          44.84          7.606          17.56         -144.4          5.056         -46.13          132.0          71.55
    0.1427              -52.83          25.02          34.48          44.84          7.601          17.56         -144.3          5.064         -46.15          132.0          71.54
    0.1903              -52.83          25.02          34.49          44.84          7.597          17.56         -144.3          5.073         -46.16          132.0          71.54
    0.2379              -52.82          25.02           34.5          44.85          7.591          17.56         -144.3          5.083         -46.18          132.0          71.53
    0.2855              -52.81          25.03           34.5          44.85          7.586          17.56         -144.3          5.093          -46.2          132.0          71.53
    0.3331              -52.81          25.03          34.51          44.85           7.58          17.56         -144.3          5.104         -46.23          132.0          71.52
    0.3806               -52.8          25.03          34.52          44.86          7.574          17.56         -144.3          5.116         -46.25          132.0          71.52
    0.4282              -52.79          25.03          34.53          44.86          7.567          17.56         -144.3          5.129         -46.28          132.0          71.51
    0.4758              -52.79          25.04          34.54          44.87           7.56          17.56         -144.3          5.142          -46.3          132.0           71.5
    0.5234              -52.78          25.04          34.55          44.87          7.552          17.56         -144.3          5.157         -46.33          131.9          71.49
     0.571              -52.77          25.04          34.57          44.87          7.544          17.56         -144.3          5.173         -46.36          131.9          71.49
    0.6185              -52.76          25.05          34.58          44.88          7.535          17.56         -144.3           5.19          -46.4          131.9          71.48
    0.6661              -52.75          25.05          34.59          44.88          7.525          17.56         -144.2          5.208         -46.43          131.9          71.47
    0.7137              -52.74          25.06          34.61          44.89          7.514          17.57         -144.2          5.228         -46.47          131.9          71.46
    0.7613              -52.72          25.06          34.63           44.9          7.502          17.57         -144.2           5.25         -46.52          131.9          71.45
    0.8089              -52.71          25.07          34.65           44.9           7.49          17.57         -144.2          5.274         -46.56          131.9          71.43
    0.8564              -52.69          25.07          34.67          44.91          7.476          17.57         -144.2            5.3         -46.61          131.9          71.42
     0.904              -52.68          25.08          34.69          44.92          7.461          17.57         -144.2          5.328         -46.67          131.8          71.41
    0.9516              -52.66          25.09          34.71          44.93          7.444          17.57         -144.1          5.359         -46.73          131.8          71.39
    0.9992              -52.64          25.09          34.74          44.94          7.426          17.57         -144.1          5.393          -46.8          131.8          71.37
     1.047              -52.62           25.1          34.77          44.95          7.406          17.57         -144.1          5.431         -46.88          131.8          71.35
     1.094              -52.59          25.11           34.8          44.96          7.384          17.58         -144.1          5.473         -46.96          131.8          71.33
     1.142              -52.56          25.12          34.84          44.98          7.359          17.58         -144.0           5.52         -47.05          131.7          71.31
     1.189              -52.53          25.13          34.88          44.99          7.331          17.58         -144.0          5.572         -47.16          131.7          71.28
     1.237               -52.5          25.15          34.93          45.01            7.3          17.58         -144.0           5.63         -47.27          131.7          71.25
     1.285              -52.46          25.16          34.98          45.03          7.265          17.59         -143.9          5.696          -47.4          131.6          71.21
     1.332              -52.42          25.18          35.04          45.05          7.226          17.59         -143.9           5.77         -47.55          131.6          71.18
      1.38              -52.37           25.2          35.11          45.07          7.181          17.59         -143.8          5.854         -47.71          131.5          71.13
     1.427              -52.31          25.22          35.18           45.1           7.13           17.6         -143.7           5.95         -47.91          131.5          71.08
     1.475              -52.25          25.24          35.27          45.13          7.072           17.6         -143.6           6.06         -48.12          131.4          71.03
